<svg width="21" height="22" viewBox="0 0 21 22" fill="none" xmlns="http://www.w3.org/2000/svg">
<path d="M13.6795 10.1167C13.484 10.1167 13.2928 10.1747 13.1301 10.2833C12.9675 10.392 12.8407 10.5464 12.7659 10.7272C12.691 10.9079 12.6714 11.1067 12.7096 11.2985C12.7478 11.4904 12.842 11.6666 12.9803 11.8049C13.1186 11.9432 13.2948 12.0374 13.4866 12.0756C13.6785 12.1137 13.8773 12.0941 14.058 12.0193C14.2387 11.9444 14.3932 11.8177 14.5018 11.655C14.6105 11.4924 14.6685 11.3012 14.6685 11.1056C14.6685 10.8433 14.5643 10.5918 14.3788 10.4063C14.1934 10.2209 13.9418 10.1167 13.6795 10.1167ZM8.17127 11.1056C8.17127 10.91 8.11325 10.7187 8.00454 10.5561C7.89584 10.3934 7.74133 10.2667 7.56058 10.1919C7.37982 10.117 7.18093 10.0975 6.98907 10.1357C6.79721 10.174 6.621 10.2682 6.48273 10.4066C6.34446 10.545 6.25033 10.7213 6.21227 10.9132C6.17421 11.1051 6.19391 11.304 6.26889 11.4847C6.34388 11.6653 6.47076 11.8197 6.63351 11.9283C6.79625 12.0369 6.98754 12.0947 7.18317 12.0946C7.44531 12.0943 7.69663 11.99 7.88191 11.8046C8.06719 11.6192 8.17127 11.3677 8.17127 11.1056ZM12.5465 13.8513C12.2769 14.1413 11.9504 14.3727 11.5875 14.5311C11.2245 14.6895 10.8329 14.7716 10.4369 14.7721C10.0409 14.7727 9.649 14.6917 9.28562 14.5343C8.92224 14.3769 8.59513 14.1465 8.32465 13.8572C8.18351 13.6822 7.97864 13.5705 7.75511 13.5466C7.53159 13.5227 7.30772 13.5885 7.13275 13.7297C6.95778 13.8708 6.84604 14.0757 6.82212 14.2992C6.79821 14.5227 6.86406 14.7466 7.00521 14.9216C7.43438 15.4075 7.96195 15.7966 8.55292 16.0631C9.14389 16.3296 9.78477 16.4674 10.4331 16.4674C11.0813 16.4674 11.7222 16.3296 12.3132 16.0631C12.9042 15.7966 13.4317 15.4075 13.8609 14.9216C13.9965 14.7468 14.0583 14.5259 14.0332 14.3061C14.0081 14.0863 13.898 13.8851 13.7265 13.7453C13.555 13.6056 13.3357 13.5385 13.1154 13.5583C12.8951 13.5781 12.6912 13.6832 12.5474 13.8513H12.5465ZM10.4339 1.22375C8.50644 1.22375 6.62226 1.79531 5.01964 2.86615C3.41701 3.93699 2.16791 5.45902 1.43031 7.23976C0.692699 9.02051 0.499707 10.98 0.875736 12.8704C1.25177 14.7608 2.17993 16.4973 3.54285 17.8602C4.90577 19.2231 6.64224 20.1513 8.53266 20.5273C10.4231 20.9034 12.3826 20.7104 14.1633 19.9728C15.9441 19.2352 17.4661 17.9861 18.5369 16.3834C19.6078 14.7808 20.1793 12.8966 20.1793 10.9692C20.1764 8.38542 19.1487 5.90833 17.3217 4.08134C15.4947 2.25435 13.0177 1.22667 10.4339 1.22375ZM10.4339 19.0197C8.84165 19.0197 7.28516 18.5476 5.96125 17.663C4.63734 16.7784 3.60548 15.521 2.99615 14.05C2.38682 12.5789 2.22739 10.9602 2.53803 9.39859C2.84866 7.83693 3.6154 6.40246 4.74129 5.27657C5.86718 4.15068 7.30166 3.38393 8.86331 3.0733C10.425 2.76267 12.0437 2.9221 13.5147 3.53142C14.9858 4.14075 16.2431 5.17261 17.1277 6.49652C18.0123 7.82043 18.4845 9.37692 18.4845 10.9692C18.4822 13.1036 17.6333 15.15 16.124 16.6593C14.6147 18.1686 12.5684 19.0175 10.4339 19.0197Z" fill="black"/>
</svg>
